<?xml version="1.0" encoding="UTF-8" standalone="no"?>
<svg
   width="1200"
   height="899.9999999999999"
   version="1.1"
   id="svg2"
   sodipodi:docname="MLADBlackBox.svg"
   inkscape:version="1.3.1 (91b66b0783, 2023-11-16)"
   xmlns:inkscape="http://www.inkscape.org/namespaces/inkscape"
   xmlns:sodipodi="http://sodipodi.sourceforge.net/DTD/sodipodi-0.dtd"
   xmlns="http://www.w3.org/2000/svg"
   xmlns:svg="http://www.w3.org/2000/svg">
  <defs
     id="defs2" />
  <sodipodi:namedview
     id="namedview2"
     pagecolor="#ffffff"
     bordercolor="#000000"
     borderopacity="0.25"
     inkscape:showpageshadow="2"
     inkscape:pageopacity="0.0"
     inkscape:pagecheckerboard="0"
     inkscape:deskcolor="#d1d1d1"
     showgrid="false"
     inkscape:zoom="0.91222222"
     inkscape:cx="600.1827"
     inkscape:cy="274.60414"
     inkscape:window-width="1920"
     inkscape:window-height="1017"
     inkscape:window-x="-8"
     inkscape:window-y="-8"
     inkscape:window-maximized="1"
     inkscape:current-layer="svg2" />
  <g
     id="g1">
    <title
       id="title1">background</title>
    <rect
       fill="none"
       id="canvas_background"
       height="402"
       width="582"
       y="-1"
       x="-1" />
  </g>
  <g
     id="g2"
     transform="matrix(1.1857752,0,0,1.1607903,-109.67338,-67.910785)">
    <title
       id="title2">Layer 1</title>
    <circle
       id="svg_514"
       cy="558.29419"
       cx="618.06671"
       stroke-opacity="null"
       stroke-width="99"
       stroke="null"
       fill="#ff0010"
       r="22.386312" />
    <g
       fill="#26af97"
       id="svg_3">
      <path
         id="svg_4"
         d="m 157.5,61.5 c 32.486,-3.2707 54.819,10.0627 67,40 -1.701,0.466 -3.201,0.466 -4.5,0 C 207.203,73.3471 185.37,61.8471 154.5,67 124.729,77.6888 111.562,98.8555 115,130.5 c 5.277,24.277 20.11,38.777 44.5,43.5 29.161,3.179 49.328,-8.654 60.5,-35.5 1.356,-0.88 2.856,-1.214 4.5,-1 -6.65,21.479 -20.984,34.979 -43,40.5 -28.662,4.25 -50.495,-5.917 -65.5,-30.5 -12.219,-28.239 -7.053,-52.739 15.5,-73.5 7.992,-5.8167 16.658,-9.9833 26,-12.5 z"
         fill="#efefef" />
    </g>
    <g
       fill="#5f6062"
       id="svg_5">
      <path
         id="svg_6"
         d="m 1068.5,172.8367 c 0,-36 0,-72 0,-108 -52.67,0 -105.333,0 -158,0 -0.329,12.8443 0.005,25.511 1,38 -0.06,0.543 -0.393,0.876 -1,1 -0.999,-13.3167 -1.333,-26.65 -1,-40 53.333,0 106.67,0 160,0 0.33,36.504 0,72.837 -1,109 z"
         fill="#5f6062" />
    </g>
    <g
       id="svg_7">
      <path
         id="svg_8"
         d="m 1068.5,172.66835 c -20,0 -40,0 -60,0 0,3.333 0,6.667 0,10 6.67,0 13.33,0 20,0 0,3.333 0,6.667 0,10 -26.33,0 -52.667,0 -79,0 0,-3.333 0,-6.667 0,-10 6.667,0 13.333,0 20,0 0,-3.333 0,-6.667 0,-10 -20,0 -40,0 -60,0 0,-11.667 0,-23.333 0,-35 1,0 2,0 3,0 1.936,9.74 2.602,19.74 2,30 20,0 40,0 60,0 0,5 0,10 0,15 9.667,0 19.333,0 29,0 0,-5 0,-10 0,-15 20,0 40,0 60,0 0.33,-32.838 0,-65.504 -1,-98 -49,0 -98,0 -147,0 0,11 0,22 0,33 -1.333,0 -2.667,0 -4,0 -0.995,-12.489 -1.329,-25.1557 -1,-38 52.667,0 105.33,0 158,0 0,36 0,72 0,108 z"
         fill="#5f6062" />
    </g>
    <g
       id="svg_11">
      <path
         id="svg_12"
         d="m 1007.5,145.5 c -18.826,-0.997 -37.826,-1.33 -57,-1 0.319,-4.863 -0.014,-9.53 -1,-14 -3.064,0.356 -5.731,-0.477 -8,-2.5 -1.5,-2.167 -3,-4.333 -4.5,-6.5 -0.667,-11.333 -0.667,-22.6667 0,-34 1.442,-3.7749 3.942,-6.6083 7.5,-8.5 5.667,-0.6667 11.333,-0.6667 17,0 3.746,1.3689 6.412,3.8689 8,7.5 19.322,0.9996 38.66,1.3329 58,1 0,6.6667 0,13.333 0,20 5.83,0.494 10.33,3.161 13.5,8 0.67,12 0.67,24 0,36 -1.83,3.167 -4.33,5.667 -7.5,7.5 -5.67,0.667 -11.33,0.667 -17,0 -5.62,-2.783 -8.62,-7.283 -9,-13.5 z"
         fill="#5f6062" />
    </g>
    <g
       id="svg_23">
      <path
         id="svg_24"
         d="m 947.5,86.5 c 4.014,-0.1655 8.014,0.0012 12,0.5 0.833,0.8333 1.667,1.6667 2.5,2.5 0.667,10 0.667,20 0,30 -0.833,0.833 -1.667,1.667 -2.5,2.5 -4,0.667 -8,0.667 -12,0 -0.833,-0.833 -1.667,-1.667 -2.5,-2.5 -0.667,-10 -0.667,-20 0,-30 1.045,-0.8734 1.878,-1.8734 2.5,-3 z"
         fill="#f7f7f7" />
    </g>
    <g
       id="svg_39">
      <path
         id="svg_40"
         d="m 970.5,93.5 c 17.159,-0.9967 34.49,-1.33 52,-1 0.32,5.1946 -0.01,10.195 -1,15 0,-4.667 0,-9.3333 0,-14 -17,0 -34,0 -51,0 z"
         fill="#5f6062" />
    </g>
    <g
       id="svg_41">
      <path
         id="svg_42"
         d="m 970.5,93.5 c 17,0 34,0 51,0 0,4.6667 0,9.333 0,14 -6.18,0.326 -10.68,3.326 -13.5,9 -0.5,7.659 -0.67,15.326 -0.5,23 -17.333,0 -34.667,0 -52,0 0,-3 0,-6 0,-9 6.728,0.113 11.562,-2.887 14.5,-9 0.5,-9.327 0.666,-18.661 0.5,-28 z"
         fill="#fdfdfd" />
    </g>
    <g
       id="svg_43">
      <path
         id="svg_44"
         d="m 182.5,92.5 c 0.869,3.0634 -0.465,5.2301 -4,6.5 -5.333,0.3333 -10.667,0.6667 -16,1 -1.167,1.167 -2.333,2.333 -3.5,3.5 0.498,-3.8648 2.665,-6.6981 6.5,-8.5 3.69,-0.5813 7.356,-0.4147 11,0.5 2.602,0.0328 4.602,-0.9672 6,-3 z"
         fill="#656668" />
    </g>
    <g
       id="svg_45">
      <path
         id="svg_46"
         d="m 161.5,102.5 c 3.682,-0.165 7.348,0.001 11,0.5 -4.569,1.677 -9.069,3.51 -13.5,5.5 -0.667,-1 -0.667,-2 0,-3 1.045,-0.873 1.878,-1.873 2.5,-3 z"
         fill="#6d6e70" />
    </g>
    <g
       id="svg_47">
      <path
         id="svg_48"
         d="m 222.5,103.5 c 5.484,-0.019 7.15,2.481 5,7.5 -6.755,0.756 -8.422,-1.744 -5,-7.5 z"
         fill="#8f48ff" />
    </g>
    <g
       id="svg_49">
      <path
         id="svg_50"
         d="m 896.5,114.5 c 0,-1.333 0,-2.667 0,-4 -57.499,-0.667 -115.166,-1 -173,-1 -58.771,0.012 -117.438,0.678 -176,2 -8.663,-0.546 -17.33,-1.212 -26,-2 124.998,-1 249.998,-1.333 375,-1 -0.16,-1.699 0.006,-3.366 0.5,-5 2.959,1.889 5.792,3.889 8.5,6 -2.893,1.945 -5.893,3.611 -9,5 z"
         fill="#8539ff" />
    </g>
    <g
       id="svg_51">
      <path
         id="svg_52"
         d="m 511.5,105.5 c 6.504,-0.362 8.171,2.138 5,7.5 -5.715,0.401 -7.381,-2.099 -5,-7.5 z"
         fill="#8c44ff" />
    </g>
    <g
       id="svg_53">
      <path
         id="svg_54"
         d="m 911.5,105.5 c 6.204,-0.186 7.537,2.314 4,7.5 -6.088,0.084 -7.421,-2.416 -4,-7.5 z"
         fill="#8e47ff" />
    </g>
    <g
       id="svg_55">
      <path
         id="svg_56"
         d="m 237.5,108.5 c 90.002,-0.333 180.002,0 270,1 -45,0.333 -90,0.667 -135,1 -45.338,0 -90.338,-0.667 -135,-2 z"
         fill="#9f62ff" />
    </g>
    <g
       id="svg_57">
      <path
         id="svg_58"
         d="m 896.5,110.5 c -114.835,-0.333 -229.501,0 -344,1 -1.006,0.438 -1.006,1.104 0,2 -1.903,-0.296 -3.57,-0.963 -5,-2 58.562,-1.322 117.229,-1.988 176,-2 57.834,0 115.501,0.333 173,1 z"
         fill="#aa76ff" />
    </g>
    <g
       id="svg_59">
      <path
         id="svg_60"
         d="m 165.5,111.5 c -4.667,0 -9.333,0 -14,0 0.302,2.559 -0.032,4.893 -1,7 0,-2.667 0,-5.333 0,-8 5.195,-0.321 10.195,0.013 15,1 z"
         fill="#9c9d9e" />
    </g>
    <g
       id="svg_61">
      <path
         id="svg_62"
         d="m 552.5,111.5 c 114.499,-1 229.165,-1.333 344,-1 0,1.333 0,2.667 0,4 -0.904,-0.709 -1.237,-1.709 -1,-3 -113.168,-0.333 -226.168,0 -339,1 -1.333,-0.333 -2.667,-0.667 -4,-1 z"
         fill="#f7f2ff" />
    </g>
    <g
       id="svg_63">
      <path
         id="svg_64"
         d="m 165.5,111.5 c 0,0.667 0,1.333 0,2 0,2.667 0,5.333 0,8 -2,0 -4,0 -6,0 0,8.667 0,17.333 0,26 1,0 2,0 3,0 0,-7.333 0,-14.667 0,-22 1.667,0 3.333,0 5,0 7.68,1.558 15.347,3.225 23,5 0.995,5.628 1.329,11.294 1,17 1.333,0 2.667,0 4,0 0,1.333 0,2.667 0,4 -17.667,0 -35.333,0 -53,0 0,-1.333 0,-2.667 0,-4 1.667,0 3.333,0 5,0 0.89,-9.675 1.89,-19.341 3,-29 0.968,-2.107 1.302,-4.441 1,-7 4.667,0 9.333,0 14,0 z"
         fill="#5a5b5d" />
    </g>
    <g
       id="svg_65">
      <path
         id="svg_66"
         d="m 1018.5,115.5 c 4.01,-0.166 8.01,0.001 12,0.5 0.83,0.833 1.67,1.667 2.5,2.5 0.67,10 0.67,20 0,30 -0.83,0.833 -1.67,1.667 -2.5,2.5 -4,0.667 -8,0.667 -12,0 -0.5,-0.5 -1,-1 -1.5,-1.5 -0.67,-10.667 -0.67,-21.333 0,-32 0.72,-0.544 1.22,-1.211 1.5,-2 z"
         fill="#fbfbfb" />
    </g>
    <g
       id="svg_67">
      <path
         id="svg_68"
         d="m 911.5,124.5 c -0.06,0.543 -0.393,0.876 -1,1 -0.987,-3.268 -1.32,-6.602 -1,-10 2,0 4,0 6,0 0,3 0,6 0,9 -1.333,0 -2.667,0 -4,0 z"
         fill="#5f6062" />
    </g>
    <g
       stroke="null"
       id="svg_69">
      <path
         stroke="null"
         id="svg_70"
         d="m 911.5,124.5 c -0.973,-2.448 -1.306,-5.115 -1,-8 1.333,0 2.667,0 4,0 0,2.333 0,4.667 0,7 -1.291,-0.237 -2.291,0.096 -3,1 z"
         fill="#595a5c" />
    </g>
    <g
       id="svg_71">
      <path
         id="svg_72"
         d="m 165.5,113.5 c 0.977,2.787 1.31,5.787 1,9 -2,0 -4,0 -6,0 -0.166,8.007 0,16.007 0.5,24 0.5,-7.326 0.666,-14.659 0.5,-22 2.235,-0.295 4.235,0.039 6,1 -1.667,0 -3.333,0 -5,0 0,7.333 0,14.667 0,22 -1,0 -2,0 -3,0 0,-8.667 0,-17.333 0,-26 2,0 4,0 6,0 0,-2.667 0,-5.333 0,-8 z"
         fill="#bbbbbc" />
    </g>
    <g
       id="svg_73">
      <path
         id="svg_74"
         d="m 552.5,111.5 c 1.333,0.333 2.667,0.667 4,1 7.287,4.287 13.287,9.954 18,17 0.057,1.109 0.39,2.109 1,3 0.941,1.55 1.607,3.216 2,5 -0.667,-0.333 -1.333,-0.667 -2,-1 -1,-1.333 -2,-2.667 -3,-4 -0.16,-1.653 -0.826,-2.986 -2,-4 -4.402,-6.874 -10.402,-11.874 -18,-15 -1.006,-0.896 -1.006,-1.562 0,-2 z"
         fill="#9859ff" />
    </g>
    <g
       id="svg_75">
      <path
         id="svg_76"
         d="m 222.5,127.5 c 6.204,-0.186 7.537,2.314 4,7.5 -6.097,0.147 -7.43,-2.353 -4,-7.5 z"
         fill="#44bdff" />
    </g>
    <g
       id="svg_77">
      <path
         id="svg_78"
         d="m 670.5,127.5 c 7.036,-0.897 8.703,1.603 5,7.5 -5.715,0.401 -7.381,-2.099 -5,-7.5 z"
         fill="#42bdff" />
    </g>
    <g
       id="svg_79">
      <path
         id="svg_80"
         d="m 910.5,127.5 c 7.036,-0.897 8.703,1.603 5,7.5 -5.715,0.401 -7.381,-2.099 -5,-7.5 z"
         fill="#45bdff" />
    </g>
    <g
       id="svg_81">
      <path
         id="svg_82"
         d="m 244.5,125.5 c 0.934,1.068 1.268,2.401 1,4 108.333,0 216.667,0 325,0 -108.499,0.999 -217.165,1.333 -326,1 0,-1.667 0,-3.333 0,-5 z"
         fill="#ade3ff" />
    </g>
    <g
       id="svg_83">
      <path
         id="svg_84"
         d="m 244.5,125.5 c 0,1.667 0,3.333 0,5 108.835,0.333 217.501,-0.001 326,-1 0,-0.333 0,-0.667 0,-1 1.174,1.014 1.84,2.347 2,4 -109.333,0 -218.667,0 -328,0 0.262,1.478 -0.071,2.811 -1,4 -3.003,-1.166 -5.67,-2.833 -8,-5 2.475,-2.741 5.475,-4.741 9,-6 z"
         fill="#48c0ff" />
    </g>
    <g
       id="svg_85">
      <path
         id="svg_86"
         d="m 680.5,129.5 c 74.333,0 148.667,0 223,0 0,1 0,2 0,3 -74.333,0 -148.667,0 -223,0 0,-1 0,-2 0,-3 z"
         fill="#71cdff" />
    </g>
    <g
       id="svg_87">
      <path
         id="svg_88"
         d="m 949.66835,130.33165 c 0.986,4.47 1.319,9.137 1,14 19.174,-0.33 38.174,0.003 57.00005,1 -19.33305,0 -38.66705,0 -58.00005,0 0,-5 0,-10 0,-15 z"
         fill="#5f6062" />
    </g>
    <g
       fill="#924dff"
       id="svg_89">
      <path
         id="svg_90"
         d="m 575.5,136.5 c 0.667,0.333 1.333,0.667 2,1 0.187,2.064 0.687,4.064 1.5,6 0.5,20.664 0.667,41.331 0.5,62 1.478,-0.262 2.811,0.071 4,1 -1.331,3.334 -3.165,6.334 -5.5,9 -1.765,-2.532 -3.265,-5.199 -4.5,-8 1.068,-0.934 2.401,-1.268 4,-1 0.331,-21.173 -0.003,-42.173 -1,-63 -0.174,-2.361 -0.507,-4.694 -1,-7 z"
         fill="#924dff" />
    </g>
    <g
       id="svg_91">
      <path
         id="svg_92"
         d="m 576.5,143.5 c 0.997,20.827 1.331,41.827 1,63 -1.599,-0.268 -2.932,0.066 -4,1 -0.543,-0.06 -0.876,-0.393 -1,-1 1.189,-0.929 2.522,-1.262 4,-1 0,-20.667 0,-41.333 0,-62 z"
         fill="#cdadff" />
    </g>
    <g
       id="svg_103">
      <path
         id="svg_104"
         d="m 658.5,153.5 c 2.584,0.548 3.584,2.215 3,5 -1.333,0 -2.667,0 -4,0 -0.134,-1.792 0.199,-3.458 1,-5 z"
         fill="#eeeeee" />
    </g>
    <g
       id="svg_109">
      <path
         id="svg_110"
         d="m 692.5,154.5 c 1.086,0.12 1.753,0.787 2,2 -0.333,0.667 -0.667,1.333 -1,2 -0.929,-1.189 -1.262,-2.522 -1,-4 z"
         fill="#f7f7f7" />
    </g>
    <g
       id="svg_111">
      <path
         id="svg_112"
         d="m 574.35542,129.48332 c 30.667,0 61.333,0 92,0 0,1 0,2 0,3 -18.175,-3.589 -33.675,1.078 -46.5,14 -4.464,5.595 -7.297,11.928 -8.5,19 -0.996,13.49001 -1.329,27.15601 -1,41 1.599,-0.268 2.932,0.066 4,1 -1.169,3.011 -2.836,5.678 -5,8 -1.92,-2.839 -3.587,-5.839 -5,-9 1.189,-0.929 2.522,-1.262 4,-1 -0.167,-14.00399 0,-28.00399 0.5,-42 3.79,-14.12199 12.29,-24.289 25.5,-30.5 -19.664,-0.5 -39.331,-0.667 -59,-0.5 -0.61,-0.89099 -0.943,-1.89099 -1,-3 z"
         fill="#65c8ff" />
    </g>
    <g
       id="svg_113">
      <path
         id="svg_114"
         d="m 912.33165,139.13894 c 1,0 2,0 3,0 0,9.667 0,19.333 0,29 19.84,-0.33 39.507,0.003 59,1 -20,0 -40,0 -60,0 0.602,-10.26 -0.064,-20.26 -2,-30 z"
         fill="#5f6062" />
    </g>
    <g
       id="svg_117">
      <path
         id="svg_118"
         d="m 909.5,172.5 c 20,0 40,0 60,0 0,3.333 0,6.667 0,10 -6.667,0 -13.333,0 -20,0 -0.333,0 -0.667,0 -1,0 6.479,-0.991 13.146,-1.324 20,-1 0,-2.667 0,-5.333 0,-8 -19.84,0.33 -39.507,-0.003 -59,-1 z"
         fill="#dbdbdc" />
    </g>
    <g
       id="svg_119">
      <path
         id="svg_120"
         d="m 1068.5,172.5 c -19.49,0.997 -39.16,1.33 -59,1 0,2.667 0,5.333 0,8 6.52,-0.323 12.86,0.01 19,1 -6.67,0 -13.33,0 -20,0 0,-3.333 0,-6.667 0,-10 20,0 40,0 60,0 z"
         fill="#d9dada" />
    </g>
    <g
       id="svg_139">
      <path
         id="svg_140"
         d="m 132.5,200.5 c 1.984,-0.016 2.984,0.984 3,3 -1.333,4 -2.667,4 -4,0 0.185,-1.084 0.518,-2.084 1,-3 z"
         fill="#ebf8f6" />
    </g>
    <g
       id="svg_147">
      <path
         id="svg_148"
         d="m 143.5,200.5 c 1,0 2,0 3,0 0,1.667 0,3.333 0,5 -1.333,0 -2.667,0 -4,0 -0.134,-1.792 0.199,-3.458 1,-5 z"
         fill="#eef9f7" />
    </g>
    <g
       id="svg_165">
      <path
         id="svg_166"
         d="m 589.5,220.5 c 3.682,-0.165 7.348,0.001 11,0.5 21.657,11.493 42.99,23.493 64,36 3.694,2.687 6.194,6.187 7.5,10.5 0.667,24.667 0.667,49.333 0,74 -0.834,5.168 -3.334,9.335 -7.5,12.5 -21.538,12.268 -43.204,24.268 -65,36 -4.94,1.041 -9.606,0.374 -14,-2 -19.333,-11 -38.667,-22 -58,-33 -4.459,-3.114 -7.292,-7.281 -8.5,-12.5 -0.667,-25 -0.667,-50 0,-75 1.505,-4.855 4.338,-8.688 8.5,-11.5 20.892,-11.608 41.559,-23.441 62,-35.5 z"
         fill="#26af97" />
    </g>
    <g
       id="svg_175">
      <path
         id="svg_176"
         d="m 589.5,226.5 c 4.436,-0.29 8.77,0.21 13,1.5 18.341,11.172 37.008,21.839 56,32 3.167,1.833 5.667,4.333 7.5,7.5 0.667,25 0.667,50 0,75 -0.667,1.333 -1.333,2.667 -2,4 -20.919,12.878 -42.086,25.378 -63.5,37.5 -4.94,1.041 -9.606,0.374 -14,-2 -18.667,-10.667 -37.333,-21.333 -56,-32 -2.209,-1.873 -4.042,-4.04 -5.5,-6.5 -0.981,-26.087 -0.648,-52.087 1,-78 1.167,-1.833 2.667,-3.333 4.5,-4.5 20.058,-11.022 39.725,-22.522 59,-34.5 z"
         fill="#fcfdfd" />
    </g>
    <g
       id="svg_177">
      <path
         id="svg_178"
         d="m 598.5,268.5 c -0.968,2.107 -1.302,4.441 -1,7 9.333,0 18.667,0 28,0 0,11 0,22 0,33 -1.667,0 -3.333,0 -5,0 0,-9.333 0,-18.667 0,-28 -16.667,0 -33.333,0 -50,0 0,9.333 0,18.667 0,28 -1.667,0 -3.333,0 -5,0 0,-11 0,-22 0,-33 9,0 18,0 27,0 -0.848,-4.991 -1.348,-9.991 -1.5,-15 3.294,-2.811 6.294,-2.478 9,1 0.667,2 0.667,4 0,6 -0.383,0.556 -0.883,0.889 -1.5,1 z"
         fill="#5c5c5b" />
    </g>
    <g
       id="svg_179">
      <path
         id="svg_180"
         d="m 598.5,268.5 c 0,2 0,4 0,6 9.182,-0.327 18.182,0.007 27,1 -9.333,0 -18.667,0 -28,0 -0.302,-2.559 0.032,-4.893 1,-7 z"
         fill="#c0c0bf" />
    </g>
    <g
       id="svg_181">
      <path
         id="svg_182"
         d="m 620.5,308.5 c -0.993,-8.818 -1.327,-17.818 -1,-27 -16,0 -32,0 -48,0 0.327,9.182 -0.007,18.182 -1,27 0,-9.333 0,-18.667 0,-28 16.667,0 33.333,0 50,0 0,9.333 0,18.667 0,28 z"
         fill="#cacaca" />
    </g>
    <g
       id="svg_183">
      <path
         id="svg_184"
         d="m 581.5,289.5 c 7.986,-0.502 9.986,2.665 6,9.5 -8.076,0.805 -10.076,-2.362 -6,-9.5 z"
         fill="#5c5c5b" />
    </g>
    <g
       id="svg_185">
      <path
         id="svg_186"
         d="m 603.5,289.5 c 7.986,-0.502 9.986,2.665 6,9.5 -8.59,0.612 -10.59,-2.555 -6,-9.5 z"
         fill="#5e5e5d" />
    </g>
    <g
       id="svg_205">
      <path
         id="svg_206"
         d="m 568.5,442.5 c 0.167,-15.67 0,-31.337 -0.5,-47 -0.169,15.172 -0.669,30.172 -1.5,45 0,-15.333 0,-30.667 0,-46 1,0 2,0 3,0 0.33,16.175 -0.004,32.175 -1,48 z"
         fill="#ff0010" />
    </g>
    <g
       id="svg_207">
      <path
         id="svg_208"
         d="m 596.5,418.78985 c -0.667,1.667 -1.333,3.33301 -2,5 -0.33,-7.032 0.003,-14.032 1,-21 0.995,5.292 1.328,10.625 1,16 z"
         fill="#ff0010" />
    </g>
    <g
       id="svg_225">
      <path
         id="svg_226"
         d="m 438.5,425.5 c 3.661,-0.15 4.661,1.35 3,4.5 -0.948,0.483 -1.948,0.649 -3,0.5 0,-1.667 0,-3.333 0,-5 z"
         fill="#f3f3f3" />
    </g>
    <g
       id="svg_227">
      <path
         id="svg_228"
         d="m 596.5,418.5 c 0,9 0,18 0,27 -0.667,0.667 -1.333,1.333 -2,2 0,-8 0,-16 0,-24 0.667,-1.667 1.333,-3.333 2,-5 z"
         fill="#ff0010" />
    </g>
    <g
       id="svg_229">
      <path
         id="svg_230"
         d="m 568.5,442.5 c -1.906,5.911 -5.906,9.244 -12,10 -20.84,0.331 -41.507,-0.003 -62,-1 20.84,0.331 41.507,-0.003 62,-1 5.657,-0.99 8.99,-4.324 10,-10 0.831,-14.828 1.331,-29.828 1.5,-45 0.5,15.663 0.667,31.33 0.5,47 z"
         fill="#ff0010" />
    </g>
    <g
       stroke="null"
       id="svg_231">
      <path
         stroke="null"
         id="svg_232"
         d="m 633.6092,450.56629 c 17.53006,0.9649 35.26251,1.28847 53.1985,0.96878 -17.53006,0.9649 -35.26251,1.28847 -53.1985,0.96877 -6.14442,-1.75832 -10.19214,-5.31082 -12.14313,-10.65652 -0.96336,-15.51007 -0.77022,-31.01046 0.57824,-46.50116 0.96336,15.16713 1.5416,30.34491 1.73474,45.53239 1.45023,4.60071 4.72772,7.82963 9.83015,9.68774 z"
         fill="#ff0010" />
    </g>
    <g
       id="svg_233">
      <path
         id="svg_234"
         d="m 327.5,451.5 c 4,0.667 8,1.333 12,2 -30.667,0 -61.333,0 -92,0 -10.826,-0.83 -21.826,-1.33 -33,-1.5 37.665,-0.5 75.332,-0.667 113,-0.5 z"
         fill="#ff0010" />
    </g>
    <g
       id="svg_235">
      <path
         id="svg_236"
         d="m 372.5,450.5 c 61.333,0 122.667,0 184,0 -20.493,0.997 -41.16,1.331 -62,1 -31.668,-0.167 -63.335,0 -95,0.5 13.173,0.169 26.173,0.669 39,1.5 -33,0 -66,0 -99,0 -4,-0.667 -8,-1.333 -12,-2 15.176,0.329 30.176,-0.004 45,-1 z"
         fill="#ff0010" />
    </g>
    <g
       id="svg_237">
      <path
         id="svg_238"
         d="m 494.5,451.5 c 20.493,0.997 41.16,1.331 62,1 -39.163,0.999 -78.496,1.332 -118,1 -12.827,-0.831 -25.827,-1.331 -39,-1.5 31.665,-0.5 63.332,-0.667 95,-0.5 z"
         fill="#ff0010" />
    </g>
    <g
       id="svg_239">
      <path
         id="svg_240"
         d="m 678.5,451.5 c 30,0 60,0 90,0 -21,0.667 -42,1.333 -63,2 -24.506,0.331 -48.839,-0.002 -73,-1 15.509,0.33 30.842,-0.004 46,-1 z"
         fill="#ff0010" />
    </g>
    <g
       id="svg_241">
      <path
         id="svg_242"
         d="m 768.5,451.5 c 29.667,0 59.333,0 89,0 -19.667,0.667 -39.333,1.333 -59,2 -31,0 -62,0 -93,0 21,-0.667 42,-1.333 63,-2 z"
         fill="#ff0010" />
    </g>
    <g
       id="svg_243">
      <path
         id="svg_244"
         d="m 857.5,451.5 c 28.669,-0.167 57.335,0 86,0.5 -18.505,0.168 -36.838,0.668 -55,1.5 -30,0 -60,0 -90,0 19.667,-0.667 39.333,-1.333 59,-2 z"
         fill="#ff0010" />
    </g>
    <g
       id="svg_245">
      <path
         id="svg_246"
         d="m 632.5,450.5 c 120,-0.167 240,0 360,0.5 10.55,3.241 14.88,10.408 13,21.5 1.37,-0.157 2.71,0.01 4,0.5 -1.46,3.089 -3.29,5.922 -5.5,8.5 -1.75,-2.505 -3.25,-5.171 -4.5,-8 1.19,-0.929 2.52,-1.262 4,-1 1.64,-8.551 -1.36,-14.718 -9,-18.5 -35.332,-0.5 -70.665,-0.667 -106,-0.5 18.162,-0.832 36.495,-1.332 55,-1.5 -28.665,-0.5 -57.331,-0.667 -86,-0.5 -29.667,0 -59.333,0 -89,0 -30,0 -60,0 -90,0 -15.509,0.33 -30.842,-0.004 -46,-1 z"
         fill="#ff0010" />
    </g>
    <g
       id="svg_247">
      <path
         id="svg_248"
         d="m 372.5,450.5 c -14.824,0.996 -29.824,1.329 -45,1 -37.668,-0.167 -75.335,0 -113,0.5 11.174,0.17 22.174,0.67 33,1.5 -20.003,-0.167 -40.003,0 -60,0.5 -8.351,2.865 -11.351,8.698 -9,17.5 1.478,-0.262 2.811,0.071 4,1 -1.833,3 -3.667,6 -5.5,9 -2.207,-2.578 -4.04,-5.411 -5.5,-8.5 1.293,-0.49 2.627,-0.657 4,-0.5 -1.686,-10.452 2.314,-17.619 12,-21.5 61.666,-0.5 123.332,-0.667 185,-0.5 z"
         fill="#ff0010" />
    </g>
    <g
       fill="none"
       id="svg_249">
      <path
         id="svg_250"
         d="m 596.5,445.5 c 0,6 0,12 0,18 1.478,-0.262 2.811,0.071 4,1 -1.667,2.667 -3.333,5.333 -5,8 -2.167,-2.33 -3.834,-4.997 -5,-8 1.189,-0.929 2.522,-1.262 4,-1 0,-5.333 0,-10.667 0,-16 0.667,-0.667 1.333,-1.333 2,-2 z"
         fill="#ff0010" />
    </g>
    <g
       id="svg_251">
      <path
         id="svg_252"
         d="m 96.5,492.5 c 24.494,-0.998 49.161,-1.331 74,-1 0.295,2.235 -0.039,4.235 -1,6 0,-1.667 0,-3.333 0,-5 -24.333,0 -48.667,0 -73,0 z"
         fill="#cdcfd0" />
    </g>
    <g
       id="svg_253">
      <path
         id="svg_254"
         d="m 174.5,490.5 c 5.484,-0.019 7.15,2.481 5,7.5 -6.755,0.756 -8.422,-1.744 -5,-7.5 z"
         fill="#9b9da0" />
    </g>
    <g
       id="svg_255">
      <path
         id="svg_256"
         d="m 517.5,492.5 c 23.828,-0.998 47.828,-1.331 72,-1 0.295,2.235 -0.039,4.235 -1,6 0,-1.667 0,-3.333 0,-5 -23.667,0 -47.333,0 -71,0 z"
         fill="#d0d2d3" />
    </g>
    <g
       id="svg_257">
      <path
         id="svg_258"
         d="m 593.5,490.5 c 5.988,0.164 7.321,2.664 4,7.5 -6.087,0.205 -7.421,-2.295 -4,-7.5 z"
         fill="#9a9b9e" />
    </g>
    <g
       id="svg_259">
      <path
         id="svg_260"
         d="m 673.5,492.5 c -23.667,0 -47.333,0 -71,0 0,1.667 0,3.333 0,5 -0.961,-1.765 -1.295,-3.765 -1,-6 24.172,-0.331 48.172,0.002 72,1 z"
         fill="#cfd1d2" />
    </g>
    <g
       id="svg_261">
      <path
         id="svg_262"
         d="m 1002.5,490.5 c 5.99,0.164 7.32,2.664 4,7.5 -6.3,0.495 -7.632,-2.005 -4,-7.5 z"
         fill="#9b9d9f" />
    </g>
    <g
       id="svg_263">
      <path
         id="svg_264"
         d="m 96.5,492.5 c 24.333,0 48.667,0 73,0 0,1.667 0,3.333 0,5 -22.667,0 -45.333,0 -68,0 0,37 0,74 0,111 19.493,0.997 39.16,1.33 59,1 0,5 0,10 0,15 10,0 20,0 30,0 0,-5 0,-10 0,-15 19.84,0.33 39.507,-0.003 59,-1 0,-37 0,-74 0,-111 -22,0 -44,0 -66,0 0,-1.667 0,-3.333 0,-5 23.667,0 47.333,0 71,0 0,40.667 0,81.333 0,122 -19.667,0 -39.333,0 -59,0 0,3.333 0,6.667 0,10 6.667,0 13.333,0 20,0 0,3.333 0,6.667 0,10 -26.667,0 -53.333,0 -80,0 0,-3.333 0,-6.667 0,-10 6.667,0 13.333,0 20,0 0,-3.333 0,-6.667 0,-10 -20,0 -40,0 -60,0 -0.3319,-40.837 0.0014,-81.503 1,-122 z"
         fill="#96989b" />
    </g>
    <g
       id="svg_265">
      <path
         id="svg_266"
         d="m 183.5,492.5 c 23.828,-0.998 47.828,-1.331 72,-1 0.332,41.17 -0.001,82.17 -1,123 0,-40.667 0,-81.333 0,-122 -23.667,0 -47.333,0 -71,0 z"
         fill="#c4c6c7" />
    </g>
    <g
       id="svg_267">
      <path
         id="svg_268"
         d="m 517.5,492.5 c 23.667,0 47.333,0 71,0 0,1.667 0,3.333 0,5 -22,0 -44,0 -66,0 0,31.667 0,63.333 0,95 19.159,0.997 38.493,1.33 58,1 -0.319,4.863 0.014,9.53 1,14 9.333,0 18.667,0 28,0 0,-4.667 0,-9.333 0,-14 19.667,0 39.333,0 59,0 0.332,-32.171 -0.002,-64.171 -1,-96 -21.667,0 -43.333,0 -65,0 0,-1.667 0,-3.333 0,-5 23.667,0 47.333,0 71,0 0,35 0,70 0,105 -19.667,0 -39.333,0 -59,0 0,3.667 0,7.333 0,11 6.333,0 12.667,0 19,0 0,3 0,6 0,9 -25.667,0 -51.333,0 -77,0 0,-3 0,-6 0,-9 6.522,0.323 12.855,-0.01 19,-1 0,-3 0,-6 0,-9 -19.333,0 -38.667,0 -58,0 0,-35.333 0,-70.667 0,-106 z"
         fill="#949699" />
    </g>
    <g
       id="svg_269">
      <path
         id="svg_270"
         d="m 933.5,497.5 c -0.998,32.496 -1.332,65.162 -1,98 19.667,0 39.333,0 59,0 0,5 0,10 0,15 9.67,0 19.33,0 29,0 0,-5 0,-10 0,-15 19.67,0 39.33,0 59,0 0,-32.667 0,-65.333 0,-98 -22.67,0 -45.33,0 -68,0 0,-1.667 0,-3.333 0,-5 24.33,0 48.67,0 73,0 0,36 0,72 0,108 -19.67,0 -39.33,0 -59,0 0,3.333 0,6.667 0,10 6.67,0 13.33,0 20,0 0,3.333 0,6.667 0,10 -26.33,0 -52.667,0 -79,0 0,-3.333 0,-6.667 0,-10 6.667,0 13.333,0 20,0 0,-3.333 0,-6.667 0,-10 -19.667,0 -39.333,0 -59,0 0,-36 0,-72 0,-108 23.333,0 46.667,0 70,0 0,1.667 0,3.333 0,5 -21.333,0 -42.667,0 -64,0 z"
         fill="#959799" />
    </g>
    <g
       id="svg_271">
      <path
         id="svg_272"
         d="m 1084.5,600.5 c 0,-36 0,-72 0,-108 -24.33,0 -48.67,0 -73,0 0,1.667 0,3.333 0,5 -0.96,-1.765 -1.29,-3.765 -1,-6 25,0 50,0 75,0 0.33,36.504 0,72.837 -1,109 z"
         fill="#bdbec0" />
    </g>
    <g
       id="svg_273">
      <path
         id="svg_274"
         d="m 667.5,497.5 c 0.998,31.829 1.332,63.829 1,96 -19.667,0 -39.333,0 -59,0 19.159,-0.997 38.493,-1.33 58,-1 0,-31.667 0,-63.333 0,-95 z"
         fill="#c9cacc" />
    </g>
    <g
       id="svg_275">
      <path
         id="svg_276"
         d="m 933.5,497.5 c 0,32.333 0,64.667 0,97 19.507,-0.33 38.841,0.003 58,1 -19.667,0 -39.333,0 -59,0 -0.332,-32.838 0.002,-65.504 1,-98 z"
         fill="#d2d3d4" />
    </g>
    <g
       id="svg_277">
      <path
         id="svg_278"
         d="m 955.5,506.5 c 3,0 6,0 9,0 0.263,3.234 -1.237,4.568 -4.5,4 -3.263,0.568 -4.763,-0.766 -4.5,-4 z"
         fill="#ff4f5a" />
    </g>
    <g
       id="svg_279">
      <path
         id="svg_280"
         d="m 970.5,506.5 c 4.667,0 9.333,0 14,0 0.17,1.322 -0.163,2.489 -1,3.5 -4,0.667 -8,0.667 -12,0 -0.837,-1.011 -1.17,-2.178 -1,-3.5 z"
         fill="#ff4b57" />
    </g>
    <g
       id="svg_281">
      <path
         id="svg_282"
         d="m 990.5,506.5 c 4.667,0 9.333,0 14,0 0.17,1.322 -0.16,2.489 -1,3.5 -4,0.667 -8,0.667 -12,0 -0.837,-1.011 -1.17,-2.178 -1,-3.5 z"
         fill="#ff4b57" />
    </g>
    <g
       id="svg_283">
      <path
         id="svg_284"
         d="m 1010.5,506.5 c 4.33,0 8.67,0 13,0 0,1.333 0,2.667 0,4 -4.01,0.166 -8.01,-10e-4 -12,-0.5 -0.84,-1.011 -1.17,-2.178 -1,-3.5 z"
         fill="#ff4855" />
    </g>
    <g
       id="svg_285">
      <path
         id="svg_286"
         d="m 1030.5,506.5 c 4.33,0 8.67,0 13,0 0.17,1.322 -0.16,2.489 -1,3.5 -3.99,0.499 -7.99,0.666 -12,0.5 0,-1.333 0,-2.667 0,-4 z"
         fill="#ff4855" />
    </g>
    <g
       id="svg_287">
      <path
         id="svg_288"
         d="m 1049.5,506.5 c 3,0 6,0 9,0 0.26,3.234 -1.24,4.568 -4.5,4 -3.26,0.568 -4.76,-0.766 -4.5,-4 z"
         fill="#ff4d58" />
    </g>
    <g
       id="svg_289">
      <path
         id="svg_290"
         d="m 185.5,594.5 c -10.282,0.952 -20.615,1.286 -31,1 -5.183,-1.684 -8.516,-5.184 -10,-10.5 -9.753,0.716 -16.253,-3.45 -19.5,-12.5 -0.5,-8.994 -0.666,-17.994 -0.5,-27 -10.396,-0.562 -16.062,-6.062 -17,-16.5 2.01,-12.012 9.01,-17.012 21,-15 7.112,2.277 11.112,7.11 12,14.5 6,0 12,0 18,0 0.122,-3.647 1.788,-6.481 5,-8.5 10.846,-2.46 16.346,1.707 16.5,12.5 -1.528,4.701 -4.695,7.368 -9.5,8 0,8.333 0,16.667 0,25 8.434,-1.355 15.601,0.978 21.5,7 1.009,1.525 1.509,3.192 1.5,5 8.171,1.566 14.838,-0.601 20,-6.5 6.194,-1.711 11.36,-0.211 15.5,4.5 2.885,12.787 -2.282,18.287 -15.5,16.5 -2.799,-2.123 -4.799,-4.79 -6,-8 -4.655,-0.499 -9.321,-0.666 -14,-0.5 -0.478,5.301 -3.145,8.967 -8,11 z"
         fill="#616264" />
    </g>
    <g
       id="svg_291">
      <path
         id="svg_292"
         d="m 631.5,536.5 c 0,-7 0,-14 0,-21 -25.667,0 -51.333,0 -77,0 0,15.667 0,31.333 0,47 12.667,0 25.333,0 38,0 -12.823,0.995 -25.823,1.329 -39,1 0,-16.333 0,-32.667 0,-49 26.333,0 52.667,0 79,0 0.325,7.519 -0.008,14.852 -1,22 z"
         fill="#7e7f80" />
    </g>
    <g
       id="svg_293">
      <path
         id="svg_294"
         d="m 219.5,513.5 c 9.616,5.887 14.616,14.554 15,26 -1.333,0 -2.667,0 -4,0 0.611,-5.118 -0.556,-9.785 -3.5,-14 -3.134,-3.134 -6.301,-6.301 -9.5,-9.5 0.139,-1.301 0.805,-2.134 2,-2.5 z"
         fill="#ff505b" />
    </g>
    <g
       id="svg_295">
      <path
         id="svg_296"
         d="m 631.5,536.5 c -1.208,-0.734 -2.541,-1.067 -4,-1 0.327,-4.714 -0.007,-9.38 -1,-14 -11.032,7.846 -22.365,15.179 -34,22 -11.131,-6.736 -22.131,-13.736 -33,-21 -0.999,11.982 -1.332,23.982 -1,36 11.333,0 22.667,0 34,0 0,1.333 0,2.667 0,4 -12.667,0 -25.333,0 -38,0 0,-15.667 0,-31.333 0,-47 25.667,0 51.333,0 77,0 0,7 0,14 0,21 z"
         fill="#5f6062" />
    </g>
    <g
       id="svg_297">
      <path
         id="svg_298"
         d="m 221.5,511.5 c 9.721,6.775 14.721,16.108 15,28 -0.667,0 -1.333,0 -2,0 -0.384,-11.446 -5.384,-20.113 -15,-26 1.333,0 2,-0.667 2,-2 z"
         fill="#ffe4e6" />
    </g>
    <g
       id="svg_299">
      <path
         id="svg_300"
         d="m 119.5,518.5 c 3.018,-0.165 6.018,0.002 9,0.5 7.185,5.661 7.851,11.995 2,19 -7.085,4.292 -12.585,2.792 -16.5,-4.5 -0.667,-3 -0.667,-6 0,-9 1.769,-2.117 3.602,-4.117 5.5,-6 z"
         fill="#f9f9f9" />
    </g>
    <g
       id="svg_301">
      <path
         id="svg_302"
         d="m 1040.5,518.5 c 3.58,1.908 6.58,4.574 9,8 -2.33,3 -5,5.667 -8,8 -2.6,-1.736 -2.6,-3.569 0,-5.5 -8.33,-0.5 -16.66,-0.666 -25,-0.5 0,-1.333 0,-2.667 0,-4 8.36,0.331 16.69,-0.002 25,-1 -2.17,-1.38 -2.5,-3.047 -1,-5 z"
         fill="#ff4b58" />
    </g>
    <g
       id="svg_303">
      <path
         id="svg_304"
         d="m 214.5,519.5 c 6.98,2.149 11.48,6.816 13.5,14 0.495,1.973 0.662,3.973 0.5,6 -1.333,0 -2.667,0 -4,0 0.162,-2.027 -0.005,-4.027 -0.5,-6 -2.243,-4.248 -5.243,-7.914 -9,-11 -0.483,-0.948 -0.649,-1.948 -0.5,-3 z"
         fill="#ff505b" />
    </g>
    <g
       id="svg_305">
      <path
         id="svg_306"
         d="m 565.5,520.5 c 18.162,-1.162 36.495,-1.329 55,-0.5 -9.469,5.97 -18.802,12.137 -28,18.5 -9.018,-6.026 -18.018,-12.026 -27,-18 z"
         fill="#f9f9f9" />
    </g>
    <g
       id="svg_307">
      <path
         id="svg_308"
         d="m 236.5,539.5 c -0.279,-11.892 -5.279,-21.225 -15,-28 -0.624,-0.417 -0.957,-1.084 -1,-2 0.233,-1.432 0.9,-1.932 2,-1.5 11.577,7.322 17.244,17.822 17,31.5 -1,0 -2,0 -3,0 z"
         fill="#ff4c58" />
    </g>
    <g
       id="svg_309">
      <path
         id="svg_310"
         d="m 1007.5,522.5 c 5.66,-0.821 7.32,1.346 5,6.5 -5.76,1.139 -7.43,-1.028 -5,-6.5 z"
         fill="#ff3f4e" />
    </g>
    <g
       id="svg_311">
      <path
         id="svg_312"
         d="m 166.5,524.5 c 5.974,-0.452 8.474,2.215 7.5,8 -3.333,4 -6.667,4 -10,0 -0.982,-3.275 -0.149,-5.941 2.5,-8 z"
         fill="#f5f5f5" />
    </g>
    <g
       id="svg_313">
      <path
         id="svg_314"
         d="m 983.5,528.5 c 3.662,-0.863 5.828,0.47 6.5,4 1.439,1.948 3.272,3.281 5.5,4 2.641,-2.304 5.31,-4.638 8,-7 1.33,0.667 2.33,1.667 3,3 -3.56,2.05 -5.73,5.05 -6.5,9 -1.525,2.587 -3.692,3.42 -6.5,2.5 -1.306,-2.573 -2.973,-4.906 -5,-7 -1.667,-0.667 -3.333,-0.667 -5,0 -4.167,4.167 -8.333,8.333 -12.5,12.5 -1.885,-0.813 -2.551,-2.147 -2,-4 5.854,-5.003 10.688,-10.67 14.5,-17 z"
         fill="#2cb199" />
    </g>
    <g
       id="svg_315">
      <path
         id="svg_316"
         d="m 139.5,533.5 c 6.342,-0.166 12.675,0 19,0.5 1.476,2.643 3.476,4.81 6,6.5 0.998,8.307 1.331,16.64 1,25 -11.166,-1.935 -18.166,2.398 -21,13 -7.363,1.787 -12.196,-0.88 -14.5,-8 -0.832,-8.686 -0.665,-17.353 0.5,-26 4.887,-2.212 7.887,-5.878 9,-11 z"
         fill="#fbfbfb" />
    </g>
    <g
       id="svg_317">
      <path
         id="svg_318"
         d="m 225.5,557.5 c -12.667,0 -25.333,0 -38,0 -1.098,-1.101 -1.265,-2.434 -0.5,-4 1.667,-1.667 3.333,-3.333 5,-5 -1.403,-8.696 1.097,-15.863 7.5,-21.5 0.948,-0.483 1.948,-0.649 3,-0.5 -0.829,-5.001 1.171,-7.168 6,-6.5 1.428,1.916 2.428,4.083 3,6.5 8.333,4.872 11.5,12.205 9.5,22 1.667,2 3.333,4 5,6 0.47,1.077 0.303,2.077 -0.5,3 z"
         fill="#ff4a57" />
    </g>
    <g
       id="svg_319">
      <path
         id="svg_320"
         d="m 202.5,528.5 c 6.372,-0.73 11.206,1.604 14.5,7 0.333,4.667 0.667,9.333 1,14 0.785,1.786 1.951,3.286 3.5,4.5 -10,0.667 -20,0.667 -30,0 1.287,-1.41 2.454,-2.91 3.5,-4.5 0.333,-4.667 0.667,-9.333 1,-14 1.694,-2.858 3.861,-5.191 6.5,-7 z"
         fill="#fff7f8" />
    </g>
    <g
       id="svg_321">
      <path
         id="svg_322"
         d="m 205.5,522.5 c 1.965,0.448 2.298,1.448 1,3 -0.886,-0.825 -1.219,-1.825 -1,-3 z"
         fill="#ffacb2" />
    </g>
    <g
       id="svg_327">
      <path
         id="svg_328"
         d="m 1007.5,544.5 c 4.29,-1.017 6.62,0.65 7,5 7.41,6.12 14.91,12.12 22.5,18 0.49,-1.634 0.66,-3.301 0.5,-5 1.67,0 3.33,0 5,0 0,4 0,8 0,12 -4,0 -8,0 -12,0 0,-1.333 0,-2.667 0,-4 3.5,0.241 3.83,-0.592 1,-2.5 -6.52,-4.759 -12.85,-9.759 -19,-15 -1.67,-0.667 -3.33,-0.667 -5,0 -3.83,4.014 -7.16,8.347 -10,13 -3.753,0.926 -5.92,-0.574 -6.5,-4.5 -1.864,-2.707 -4.364,-3.541 -7.5,-2.5 -4.035,3.7 -7.702,7.7 -11,12 -1.576,0.388 -2.909,-0.112 -4,-1.5 3.985,-4.485 8.151,-8.818 12.5,-13 0.273,-4.945 2.773,-6.779 7.5,-5.5 0.981,4.985 3.981,7.318 9,7 4.78,-3.585 8.11,-8.085 10,-13.5 z"
         fill="#727272" />
    </g>
    <g
       id="svg_333">
      <path
         id="svg_334"
         d="m 187.5,557.5 c 12.667,0 25.333,0 38,0 -3.798,0.983 -7.798,1.317 -12,1 0.237,1.291 -0.096,2.291 -1,3 -3.529,-1.923 -7.529,-2.589 -12,-2 0,1 0,2 0,3 -0.934,-1.068 -1.268,-2.401 -1,-4 -4.202,0.317 -8.202,-0.017 -12,-1 z"
         fill="#ffb4ba" />
    </g>
    <g
       id="svg_335">
      <path
         id="svg_336"
         d="m 212.5,561.5 c -1.577,4.122 -4.577,5.622 -9,4.5 -1.21,-1.039 -2.21,-2.206 -3,-3.5 0,-1 0,-2 0,-3 4.471,-0.589 8.471,0.077 12,2 z"
         fill="#ff3d4d" />
    </g>
    <g
       id="svg_339">
      <path
         id="svg_340"
         d="m 154.5,571.5 c 9.339,-0.166 18.673,0 28,0.5 5.589,2.451 7.422,6.617 5.5,12.5 -1.167,2.5 -3,4.333 -5.5,5.5 -9,0.667 -18,0.667 -27,0 -5.135,-3.055 -6.968,-7.555 -5.5,-13.5 1.707,-1.537 3.207,-3.204 4.5,-5 z"
         fill="#fbfbfb" />
    </g>
    <g
       id="svg_341">
      <path
         id="svg_342"
         d="m 215.5,575.5 c 6.179,-0.642 9.346,2.025 9.5,8 -3.17,3.107 -6.837,3.774 -11,2 -2.271,-3.803 -1.771,-7.137 1.5,-10 z"
         fill="#f2f2f2" />
    </g>
    <g
       id="svg_343">
      <path
         id="svg_344"
         d="m 956.5,582.5 c 2.667,0 5.333,0 8,0 0,1.333 0,2.667 0,4 -3,0 -6,0 -9,0 -0.067,-1.459 0.266,-2.792 1,-4 z"
         fill="#ff505a" />
    </g>
    <g
       id="svg_345">
      <path
         id="svg_346"
         d="m 971.5,582.5 c 4.014,-0.166 8.014,10e-4 12,0.5 0.837,1.011 1.17,2.178 1,3.5 -4.667,0 -9.333,0 -14,0 -0.067,-1.459 0.266,-2.792 1,-4 z"
         fill="#ff4e59" />
    </g>
    <g
       id="svg_347">
      <path
         id="svg_348"
         d="m 991.5,582.5 c 4.014,-0.166 8.014,10e-4 12,0.5 0.84,1.011 1.17,2.178 1,3.5 -4.667,0 -9.333,0 -14,0 -0.067,-1.459 0.266,-2.792 1,-4 z"
         fill="#ff4e59" />
    </g>
    <g
       id="svg_349">
      <path
         id="svg_350"
         d="m 1010.5,582.5 c 4.33,0 8.67,0 13,0 0,1.333 0,2.667 0,4 -4.33,0 -8.67,0 -13,0 0,-1.333 0,-2.667 0,-4 z"
         fill="#ff4b56" />
    </g>
    <g
       id="svg_351">
      <path
         id="svg_352"
         d="m 1030.5,582.5 c 4.33,0 8.67,0 13,0 0,1.333 0,2.667 0,4 -4.33,0 -8.67,0 -13,0 0,-1.333 0,-2.667 0,-4 z"
         fill="#ff4b56" />
    </g>
    <g
       id="svg_353">
      <path
         id="svg_354"
         d="m 1050.5,582.5 c 2.36,-0.163 4.69,0.003 7,0.5 0.84,1.011 1.17,2.178 1,3.5 -3,0 -6,0 -9,0 -0.07,-1.459 0.27,-2.792 1,-4 z"
         fill="#ff505b" />
    </g>
    <g
       id="svg_355">
      <path
         id="svg_356"
         d="m 522.5,592.5 c 19.667,0 39.333,0 59,0 0,5 0,10 0,15 -0.986,-4.47 -1.319,-9.137 -1,-14 -19.507,0.33 -38.841,-0.003 -58,-1 z"
         fill="#b5b7b8" />
    </g>
    <g
       id="svg_357">
      <path
         id="svg_358"
         d="m 185.5,594.5 c -0.111,0.617 -0.444,1.117 -1,1.5 -10.175,0.825 -20.175,0.658 -30,-0.5 10.385,0.286 20.718,-0.048 31,-1 z"
         fill="#a6a7a8" />
    </g>
    <g
       id="svg_359">
      <path
         id="svg_360"
         d="m 673.5,597.5 c -19.159,0.997 -38.493,1.33 -58,1 0,3 0,6 0,9 6.333,0 12.667,0 19,0 0,3.667 0,7.333 0,11 -26.333,0 -52.667,0 -79,0 0,-3.667 0,-7.333 0,-11 6.667,0 13.333,0 20,0 -6.145,0.99 -12.478,1.323 -19,1 0,3 0,6 0,9 25.667,0 51.333,0 77,0 0,-3 0,-6 0,-9 -6.333,0 -12.667,0 -19,0 0,-3.667 0,-7.333 0,-11 19.667,0 39.333,0 59,0 z"
         fill="#b6b7b9" />
    </g>
    <g
       id="svg_361">
      <path
         id="svg_362"
         d="m 101.5,608.5 c 20,0 40,0 60,0 0,5 0,10 0,15 9.333,0 18.667,0 28,0 0,-5 0,-10 0,-15 20,0 40,0 60,0 -19.493,0.997 -39.16,1.33 -59,1 0,5 0,10 0,15 -10,0 -20,0 -30,0 0,-5 0,-10 0,-15 -19.84,0.33 -39.507,-0.003 -59,-1 z"
         fill="#c6c7c9" />
    </g>
    <g
       id="svg_395">
      <path
         id="svg_396"
         d="m 169.5,679.5 c 34.475,-0.018 55.975,16.649 64.5,50 2.998,30.178 -9.169,51.678 -36.5,64.5 -35.616,10.103 -61.45,-1.397 -77.5,-34.5 -9.144,-34.249 2.023,-59.416 33.5,-75.5 5.429,-1.614 10.763,-3.114 16,-4.5 z"
         fill="#eeeeee" />
    </g>
    <g
       id="svg_397">
      <path
         id="svg_398"
         d="m 994.5,681.5 c 36.62,-2.528 59.78,13.805 69.5,49 2.9,30.704 -9.6,52.537 -37.5,65.5 -36.508,9.328 -62.341,-3.172 -77.5,-37.5 -7.419,-39.177 7.747,-64.844 45.5,-77 z"
         fill="#efefef" />
    </g>
    <g
       id="svg_399">
      <path
         id="svg_400"
         d="m 167.5,684.5 c 31.836,-1.525 52.336,12.809 61.5,43 3.761,31.541 -9.072,53.041 -38.5,64.5 -29.682,5.406 -51.516,-5.094 -65.5,-31.5 -9.699,-30.245 -1.199,-53.745 25.5,-70.5 5.606,-2.494 11.272,-4.327 17,-5.5 z"
         fill="#fdfdfd" />
    </g>
    <g
       id="svg_401">
      <path
         id="svg_402"
         d="m 999.5,685.5 c 26.1,-1.205 44.94,9.795 56.5,33 7.56,20.51 4.9,39.51 -8,57 -24.34,24.186 -50.507,26.353 -78.5,6.5 -17.918,-17.619 -22.752,-38.453 -14.5,-62.5 9.006,-19.196 23.839,-30.529 44.5,-34 z"
         fill="#fdfdfd" />
    </g>
    <g
       id="svg_403">
      <path
         id="svg_404"
         d="m 178.5,707.5 c 0,-1 0,-2 0,-3 11.003,3.639 17.003,11.306 18,23 -14.333,0 -28.667,0 -43,0 0.768,-9.042 4.768,-16.208 12,-21.5 1.973,-0.495 3.973,-0.662 6,-0.5 0,1.667 0,3.333 0,5 -0.131,0.876 0.202,1.543 1,2 0.987,-3.268 1.32,-6.602 1,-10 1,0 2,0 3,0 -0.165,3.35 0.002,6.683 0.5,10 1.269,-1.405 1.769,-3.071 1.5,-5 z"
         fill="#5c5d5e" />
    </g>
    <g
       id="svg_405">
      <path
         id="svg_406"
         d="m 178.5,707.5 c 0.269,1.929 -0.231,3.595 -1.5,5 -0.498,-3.317 -0.665,-6.65 -0.5,-10 -1,0 -2,0 -3,0 0.32,3.398 -0.013,6.732 -1,10 -0.798,-0.457 -1.131,-1.124 -1,-2 0.977,-2.787 1.31,-5.787 1,-9 1.667,0 3.333,0 5,0 -0.295,2.235 0.039,4.235 1,6 z"
         fill="#a1a2a3" />
    </g>
    <g
       id="svg_407">
      <path
         id="svg_408"
         d="m 1000.5,711.5 c 10.42,-1.401 17.92,2.599 22.5,12 1.26,7.482 -0.9,13.816 -6.5,19 10.66,4.995 15.99,13.328 16,25 -1.33,0 -2.67,0 -4,0 -0.29,-7.752 -3.63,-13.919 -10,-18.5 -2.81,-1.549 -5.81,-2.382 -9,-2.5 0,1.333 0,2.667 0,4 -2,0 -4,0 -6,0 0,-1.333 0,-2.667 0,-4 -12.227,1.564 -18.56,8.564 -19,21 -1.667,0 -3.333,0 -5,0 -0.105,-4.187 0.728,-8.187 2.5,-12 3.688,-5.188 8.188,-9.522 13.5,-13 -9.408,-12.337 -7.742,-22.67 5,-31 z"
         fill="#656667" />
    </g>
    <g
       id="svg_409">
      <path
         id="svg_410"
         d="m 1000.5,716.5 c 13.32,-1.844 19.15,3.823 17.5,17 -3.85,6.167 -9.35,8.334 -16.5,6.5 -6.476,-4.082 -8.643,-9.915 -6.5,-17.5 2.04,-1.87 3.873,-3.87 5.5,-6 z"
         fill="#fafafb" />
    </g>
    <g
       id="svg_411">
      <path
         id="svg_412"
         d="m 157.5,729.5 c 1.667,0 3.333,0 5,0 -0.307,11.861 5.36,16.694 17,14.5 5.776,-2.619 8.443,-7.119 8,-13.5 1.333,0 2.667,0 4,0 0.117,12.084 -5.883,18.417 -18,19 -10.816,-2.16 -16.149,-8.826 -16,-20 z"
         fill="#696a6c" />
    </g>
    <g
       id="svg_413">
      <path
         id="svg_414"
         d="m 1003.5,753.5 c 2,0 4,0 6,0 0.63,4.641 0.96,9.307 1,14 -3,0 -6,0 -9,0 1.05,-4.607 1.72,-9.273 2,-14 z"
         fill="#5f6062" />
    </g>
    <g
       id="svg_415">
      <path
         id="svg_416"
         d="m 149.5,765.5 c -0.968,2.107 -1.302,4.441 -1,7 -1,0 -2,0 -3,0 0,-3 0,-6 0,-9 2.12,-3.954 5.12,-7.121 9,-9.5 13.333,-0.667 26.667,-0.667 40,0 7.93,3.695 11.264,9.862 10,18.5 -1.333,0 -2.667,0 -4,0 1.36,-7.117 -1.307,-11.951 -8,-14.5 -12,-0.667 -24,-0.667 -36,0 -3.239,1.736 -5.573,4.236 -7,7.5 z"
         fill="#616264" />
    </g>
    <g
       id="svg_417">
      <path
         id="svg_418"
         d="m 145.5,763.5 c 0,3 0,6 0,9 1,0 2,0 3,0 -0.302,-2.559 0.032,-4.893 1,-7 0,2.667 0,5.333 0,8 -1.667,0 -3.333,0 -5,0 -0.313,-3.542 0.021,-6.875 1,-10 z"
         fill="#abacad" />
    </g>
    <g
       id="svg_451">
      <path
         id="svg_452"
         d="m 212.5,819.5 c 1,0 2,0 3,0 0,1.667 0,3.333 0,5 -1.333,0 -2.667,0 -4,0 -0.134,-1.792 0.199,-3.458 1,-5 z"
         fill="#f0faf8" />
    </g>
    <g
       id="svg_467">
      <path
         id="svg_468"
         d="m 1070.5,821.5 c 1.67,0 3.33,0 5,0 0.67,4.176 -0.83,5.509 -4.5,4 -0.49,-1.293 -0.66,-2.627 -0.5,-4 z"
         fill="#e4f5f3" />
    </g>
    <g
       id="svg_471">
      <path
         id="svg_472"
         d="m 200.5,819.5 c 3.41,-0.116 4.744,1.55 4,5 -4.435,0.578 -5.768,-1.089 -4,-5 z"
         fill="#eaf7f5" />
    </g>
    <g
       id="svg_479">
      <path
         id="svg_480"
         d="m 983.5,820.5 c 0.996,-0.086 1.829,0.248 2.5,1 0.494,1.634 0.66,3.301 0.5,5 -3.944,-0.384 -4.944,-2.384 -3,-6 z"
         fill="#e6f6f3" />
    </g>
    <text
       font-weight="bold"
       xml:space="preserve"
       text-anchor="start"
       font-family="'Times New Roman', Times, serif"
       font-size="24px"
       id="svg_485"
       y="206.3217"
       x="93.749802"
       stroke-width="0"
       fill="#4bbda9">Оборудование</text>
    <text
       xml:space="preserve"
       text-anchor="start"
       font-family="'Times New Roman', Times, serif"
       font-size="24px"
       id="svg_489"
       y="91.803284"
       x="451.47549"
       stroke-width="0"
       fill="#696969">Телеметрия</text>
    <text
       font-weight="bold"
       xml:space="preserve"
       text-anchor="start"
       font-family="'Times New Roman', Times, serif"
       font-size="24px"
       id="svg_490"
       y="332.22223"
       x="558.88898"
       stroke-width="0"
       fill="#5c5c5b">MLAD</text>
    <text
       xml:space="preserve"
       text-anchor="start"
       font-family="'Times New Roman', Times, serif"
       font-size="24px"
       id="svg_491"
       y="158.66626"
       x="633.33167"
       stroke-width="0"
       fill="#5c5c5b">Команды</text>
    <g
       id="svg_495">
      <path
         id="svg_494"
         d="m 896.5,114.5 c 0,-1.333 0,-2.667 0,-4 -57.499,-0.667 -115.166,-1 -173,-1 -58.771,0.012 -117.438,0.678 -176,2 -8.663,-0.546 -17.33,-1.212 -26,-2 124.998,-1 249.998,-1.333 375,-1 -0.16,-1.699 0.006,-3.366 0.5,-5 2.959,1.889 5.792,3.889 8.5,6 -2.893,1.945 -5.893,3.611 -9,5 z"
         fill="#8539ff" />
    </g>
    <rect
       id="svg_497"
       height="0"
       width="0.44444299"
       y="291.99924"
       x="362.22125"
       stroke-width="null"
       fill="#5c5c5b" />
    <line
       opacity="0.96"
       stroke-linecap="null"
       stroke-linejoin="null"
       id="svg_498"
       y2="102.22195"
       x2="504.44312"
       y1="100.88863"
       x1="238.66603"
       stroke-width="null"
       fill="none" />
    <line
       stroke-linecap="null"
       stroke-linejoin="null"
       id="svg_499"
       y2="95.555305"
       x2="456.8877"
       y1="95.555305"
       x1="457.33212"
       stroke-width="null"
       fill="none" />
    <line
       opacity="0"
       stroke-linecap="null"
       stroke-linejoin="null"
       id="svg_502"
       y2="103.55529"
       x2="504.88757"
       y1="102.22195"
       x1="239.11047"
       fill="none" />
    <text
       font-weight="bold"
       xml:space="preserve"
       text-anchor="start"
       font-family="'Times New Roman', Times, serif"
       font-size="24px"
       id="svg_505"
       y="223.99942"
       x="948.44196"
       stroke-width="0"
       fill="#26af97">SCADA</text>
    <text
       font-weight="bold"
       xml:space="preserve"
       text-anchor="start"
       font-family="'Times New Roman', Times, serif"
       font-size="24px"
       id="svg_506"
       y="658.66498"
       x="492.44315"
       stroke-width="0"
       fill="#5fc3b1">Извещение по email</text>
    <text
       font-weight="bold"
       xml:space="preserve"
       text-anchor="start"
       font-family="'Times New Roman', Times, serif"
       font-size="24px"
       id="svg_507"
       y="825.14441"
       x="123.4288"
       stroke-width="0"
       fill="#5fc3b1">Оператор</text>
    <text
       xml:space="preserve"
       text-anchor="start"
       font-family="'Times New Roman', Times, serif"
       font-size="24px"
       id="svg_508"
       y="439.42938"
       x="384.57214"
       stroke-width="0"
       fill="#5c5c5b">Аномалии</text>
    <text
       font-weight="bold"
       xml:space="preserve"
       text-anchor="start"
       font-family="'Times New Roman', Times, serif"
       font-size="24px"
       id="svg_509"
       y="826.28723"
       x="910.85883"
       stroke-width="0"
       fill="#5fc3b1">Эксперт-технолог</text>
    <g
       id="svg_511">
      <path
         id="svg_510"
         d="m 622.4878,442.81746 c 0.167,-15.67 0,-31.337 -0.5,-47 -0.169,15.172 -0.669,30.172 -1.5,45 0,-15.333 0,-30.667 0,-46 1,0 2,0 3,0 0.33,16.175 -0.004,32.175 -1,48 z"
         fill="#ff0010" />
    </g>
    <rect
       stroke="null"
       id="svg_512"
       height="8.3146067"
       width="2.247191"
       y="431.46066"
       x="621.04065"
       stroke-width="99"
       fill="#ff0010" />
    <ellipse
       ry="18.181776"
       rx="18.749956"
       id="svg_519"
       cy="558.40784"
       cx="618.06677"
       stroke-width="99"
       fill="#ffeff0" />
    <text
       font-weight="bold"
       stroke="null"
       xml:space="preserve"
       text-anchor="start"
       font-family="'Times New Roman', Times, serif"
       font-size="36px"
       id="svg_521"
       y="569.77142"
       x="612.04407"
       stroke-width="99"
       fill="#ff0010">!</text>
    <rect
       id="svg_522"
       height="2.265372"
       width="266.34305"
       y="108.21747"
       x="237.88345"
       stroke-width="99"
       stroke="null"
       fill="#924dff" />
    <circle
       id="svg_523"
       cy="107.98657"
       cx="224.02252"
       stroke-width="99"
       stroke="null"
       fill="#924dff"
       r="4.7138038" />
    <circle
       id="svg_527"
       cy="131.0141"
       cx="223.37675"
       stroke-width="99"
       fill="#44bdff"
       r="4.7138038" />
    <circle
       id="svg_528"
       cy="109.4276"
       cx="513.97302"
       stroke-width="99"
       stroke="null"
       fill="#924dff"
       r="4.7138038" />
    <g
       id="svg_530">
      <path
         id="svg_529"
         d="m 237.5,108.5 c 90.002,-0.333 180.002,0 270,1 -45,0.333 -90,0.667 -135,1 -45.338,0 -90.338,-0.667 -135,-2 z"
         fill="#9f62ff" />
    </g>
    <g
       id="svg_532">
      <path
         id="svg_531"
         d="m 244.5,125.5 c 0.934,1.068 1.268,2.401 1,4 108.333,0 216.667,0 325,0 -108.499,0.999 -217.165,1.333 -326,1 0,-1.667 0,-3.333 0,-5 z"
         fill="#ade3ff" />
    </g>
    <g
       id="svg_534">
      <path
         id="svg_533"
         d="m 244.5,125.5 c 0,1.667 0,3.333 0,5 108.835,0.333 217.501,-0.001 326,-1 0,-0.333 0,-0.667 0,-1 1.174,1.014 1.84,2.347 2,4 -109.333,0 -218.667,0 -328,0 0.262,1.478 -0.071,2.811 -1,4 -3.003,-1.166 -5.67,-2.833 -8,-5 2.475,-2.741 5.475,-4.741 9,-6 z"
         fill="#48c0ff" />
    </g>
    <rect
       id="svg_535"
       height="2.265372"
       width="266.34305"
       y="108.21747"
       x="237.88345"
       stroke-width="99"
       stroke="null"
       fill="#924dff" />
    <circle
       id="svg_536"
       cy="109.4276"
       cx="513.97302"
       stroke-width="99"
       stroke="null"
       fill="#924dff"
       r="4.7138038" />
    <circle
       id="svg_537"
       cy="109.40937"
       cx="913.36768"
       stroke-width="99"
       stroke="null"
       fill="#924dff"
       r="4.7138038" />
    <circle
       id="svg_538"
       cy="130.8046"
       cx="673.45447"
       stroke-width="99"
       fill="#44bdff"
       r="4.7138038" />
    <circle
       id="svg_539"
       cy="131.3428"
       cx="913.35284"
       stroke-width="99"
       fill="#44bdff"
       r="4.7138038" />
    <rect
       stroke="null"
       id="svg_540"
       height="9.2057781"
       width="6.1371851"
       y="116.2422"
       x="909.38641"
       stroke-width="99"
       fill="#5f6062" />
    <rect
       stroke="null"
       id="svg_541"
       height="38.628166"
       width="5.7761741"
       y="65.162468"
       x="909.93127"
       stroke-width="99"
       fill="#5f6062" />
    <rect
       id="svg_542"
       height="7.5367651"
       width="4.7794118"
       y="137.68382"
       x="910.47797"
       stroke-opacity="null"
       stroke-width="99"
       stroke="null"
       fill="#5f6062" />
    <rect
       stroke="null"
       id="svg_543"
       height="2.265372"
       width="374.72293"
       y="108.21747"
       x="521.94116"
       stroke-width="99"
       fill="#924dff" />
    <rect
       id="svg_545"
       height="2.265372"
       width="90.924065"
       y="130.00517"
       x="575.01379"
       stroke-width="99"
       fill="#44bdff" />
    <rect
       stroke="null"
       transform="rotate(-27,572.95917,130.98419)"
       id="svg_546"
       height="10.902472"
       width="2.310514"
       y="125.53296"
       x="571.80389"
       stroke-width="99"
       fill="#924dff" />
    <rect
       stroke="null"
       transform="rotate(-10,577.06299,139.22832)"
       id="svg_548"
       height="8.6152992"
       width="2.4923649"
       y="134.92067"
       x="575.81683"
       stroke-width="99"
       fill="#924dff" />
    <rect
       stroke="null"
       transform="rotate(-28,575.83966,136.37314)"
       id="svg_549"
       height="3.5752261"
       width="2.4923649"
       y="134.58554"
       x="574.59351"
       stroke-width="99"
       fill="#924dff" />
    <rect
       stroke="null"
       transform="rotate(-28,574.90283,132.79958)"
       id="svg_550"
       height="6.9880571"
       width="2.4923649"
       y="129.30554"
       x="573.65662"
       stroke-width="99"
       fill="#924dff" />
  </g>
</svg>
